<svg xmlns="http://www.w3.org/2000/svg" viewBox="0 0 20 20">
    <g fill="none" fill-rule="evenodd">
        <g fill="currentColor">
            <g>
                <g>
                    <path d="M8.05 0c.414 0 .75.336.75.75v14.693l6.026-6.023c.293-.293.768-.293 1.06 0 .294.293.294.767 0 1.06l-7.302 7.304c-.198.197-.478.261-.729.193l-.01-.006-.042-.01-.051-.023c-.055-.022-.108-.053-.157-.091l-.075-.067-7.3-7.3c-.293-.293-.293-.767 0-1.06.293-.293.767-.293 1.06 0l6.02 6.019V.75c0-.414.336-.75.75-.75z" transform="translate(-483.000000, -524.000000) translate(483.000000, 524.000000) translate(1.950000, 1.000000)"/>
                </g>
            </g>
        </g>
    </g>
</svg>
