<svg xmlns="http://www.w3.org/2000/svg" width="18" height="18" viewBox="0 0 18 18">
    <g fill="none" fill-rule="evenodd">
        <g fill="currentColor">
            <g>
                <g>
                    <path d="M9.193 0c.286 0 .558.098.778.277l.09.082 3.284 3.284c.203.203.326.464.354.746l.006.122v9.807c0 .637-.488 1.162-1.11 1.222l-.118.005H1.227c-.637 0-1.162-.487-1.221-1.109L0 14.318V1.228C0 .59.488.064 1.11.005L1.226 0h7.966zm-.398.818H1.227c-.2 0-.368.145-.402.336l-.007.073v13.091c0 .2.145.368.336.403l.073.006h11.25c.201 0 .368-.145.403-.336l.006-.073V4.91h-4.09V.82zM7.563 8.731v2.84l.539-.193.12.334-1.9.683c-.087.03-.18-.035-.18-.128v-2.84l-.54.194-.119-.335 1.9-.683c.087-.032.18.034.18.128zm-.71-2.859c.619 0 1.121.502 1.121 1.122 0 .618-.502 1.12-1.122 1.12-.62 0-1.12-.502-1.12-1.12 0-.62.5-1.122 1.12-1.122zm2.76-4.803V4.09h3.022L9.614 1.069z" transform="translate(-1188 -24) translate(1188 24) translate(2.148 1.228)"/>
                </g>
            </g>
        </g>
    </g>
</svg>
