<svg xmlns="http://www.w3.org/2000/svg" viewBox="0 0 18 18">
    <g fill="none" fill-rule="evenodd">
        <g fill="currentColor" fill-rule="nonzero">
            <g>
                <g>
                    <g>
                        <g>
                            <path d="M9.736 0c.844.064 1.63.35 2.24.646l.27.137.241.133.211.126.255.164.26.185.056.086.082.136.155.279.094.18.157.325.113.25.118.278.122.306.062.163.124.348c.042.12.083.245.124.374l.123.403.119.43c.292 1.108.54 2.473.638 4.092-.852.983-1.915 1.503-2.796 1.778l-.271.079-.257.064-.122.027-.336.063-.284.04-.283.027-.171.008-.57-.76c.968-.336 2.06-.936 3.004-2.022-1.126.852-2.826 1.74-5.564 1.74-2.536 0-4.18-.761-5.304-1.55l-.26-.19c.882 1.013 1.892 1.604 2.81 1.952l.195.07-.57.76-.172-.008-.2-.017-.266-.034-.1-.016-.22-.04c-.076-.014-.156-.03-.239-.05l-.257-.064-.271-.079C1.915 10.544.852 10.024 0 9.041c.096-1.584.335-2.925.62-4.02l.115-.425.12-.399.12-.372.061-.177.122-.333.06-.156.118-.293.115-.267.11-.24.103-.215.181-.347.164-.285.077-.121.184-.135.138-.093.27-.17L2.9.864C3.49.537 4.357.154 5.361.023L5.564 0l.17.34C4.18.69 3.25 1.353 2.433 2.086l.552-.277.374-.178C4.494 1.107 5.756.695 7.65.695c1.894 0 3.156.412 4.29.936l.374.178.368.184.184.093-.272-.239C11.91 1.261 11.177.775 9.842.411L9.567.34l.17-.34zM5.39 4.868c-.673 0-1.217.623-1.217 1.391 0 .769.544 1.391 1.217 1.391.672 0 1.217-.622 1.217-1.39 0-.77-.545-1.392-1.217-1.392zm4.52 0c-.672 0-1.217.623-1.217 1.391 0 .769.545 1.391 1.217 1.391.673 0 1.217-.622 1.217-1.39 0-.77-.544-1.392-1.217-1.392z" transform="translate(-208.000000, -1271.000000) translate(174.000000, 1259.000000) translate(0.000000, 12.000000) translate(34.000000, 0.000000) translate(1.350000, 3.600000)"/>
                        </g>
                    </g>
                </g>
            </g>
        </g>
    </g>
</svg>
