<svg xmlns="http://www.w3.org/2000/svg" viewBox="0 0 18 18">
    <g fill="none" fill-rule="evenodd">
        <g fill="currentColor">
            <g>
                <g>
                    <g>
                        <g>
                            <path d="M7.844 0C3.512 0 0 3.512 0 7.844c0 3.465 2.247 6.405 5.364 7.442.392.073.536-.17.536-.377 0-.187-.007-.805-.01-1.46-2.183.474-2.643-.926-2.643-.926-.357-.906-.871-1.147-.871-1.147-.712-.487.053-.477.053-.477.788.055 1.203.808 1.203.808.7 1.2 1.835.853 2.282.652.07-.507.274-.853.498-1.049-1.742-.198-3.573-.87-3.573-3.876 0-.856.306-1.556.808-2.105-.082-.198-.35-.996.076-2.076 0 0 .659-.21 2.157.804.626-.174 1.297-.261 1.964-.264.666.003 1.338.09 1.965.264 1.497-1.015 2.155-.804 2.155-.804.426 1.08.158 1.878.077 2.076.502.549.807 1.249.807 2.105 0 3.013-1.835 3.676-3.582 3.87.281.244.532.72.532 1.453 0 1.05-.009 1.894-.009 2.152 0 .209.141.453.539.377 3.115-1.039 5.36-3.978 5.36-7.442C15.687 3.512 12.175 0 7.843 0" transform="translate(-310.000000, -1271.000000) translate(174.000000, 1259.000000) translate(0.000000, 12.000000) translate(136.000000, 0.000000) translate(1.349974, 1.349948)"/>
                        </g>
                    </g>
                </g>
            </g>
        </g>
    </g>
</svg>
