<svg xmlns="http://www.w3.org/2000/svg" viewBox="0 0 18 18">
    <g fill="none" fill-rule="evenodd">
        <g fill="currentColor">
            <g>
                <g>
                    <g>
                        <path d="M1.833 2.504c.02-.19-.053-.378-.195-.505L.195.259V0h4.482l3.464 7.598L11.187 0h4.272v.26l-1.234 1.183c-.106.081-.159.214-.137.346v8.695c-.022.131.03.265.137.346l1.205 1.183v.26H9.368v-.26l1.249-1.212c.122-.123.122-.159.122-.346V3.427l-3.471 8.817h-.47L2.758 3.427v5.91c-.034.248.049.498.223.677l1.624 1.97v.26H0v-.26l1.624-1.97c.174-.18.251-.431.21-.677V2.504z" transform="translate(-174.000000, -1271.000000) translate(174.000000, 1259.000000) translate(0.000000, 12.000000) translate(1.227273, 2.863636)"/>
                    </g>
                </g>
            </g>
        </g>
    </g>
</svg>
