<svg xmlns="http://www.w3.org/2000/svg" viewBox="0 0 18 18">
    <g fill="none" fill-rule="evenodd">
        <g fill="currentColor" fill-rule="nonzero">
            <g>
                <g>
                    <g>
                        <g>
                            <path d="M.934 5.487l9.077-3.74c.896-.39 3.935-1.636 3.935-1.636s1.402-.545 1.286.78c-.04.545-.351 2.454-.663 4.518l-.974 6.117s-.078.896-.74 1.052c-.662.155-1.753-.546-1.948-.702-.156-.117-2.922-1.87-3.934-2.727-.273-.233-.585-.7.039-1.246 1.402-1.286 3.077-2.883 4.09-3.896.468-.468.935-1.558-1.013-.234L4.596 7.474s-.623.39-1.792.04C1.635 7.161.272 6.694.272 6.694s-.935-.584.662-1.208z" transform="translate(-242.000000, -1271.000000) translate(174.000000, 1259.000000) translate(0.000000, 12.000000) translate(68.000000, 0.000000) translate(1.170000, 2.700000)"/>
                        </g>
                    </g>
                </g>
            </g>
        </g>
    </g>
</svg>
