<svg xmlns="http://www.w3.org/2000/svg" viewBox="0 0 18 18">
    <g fill="none" fill-rule="evenodd">
        <g fill="currentColor" fill-rule="nonzero">
            <g>
                <g>
                    <g>
                        <g>
                            <path d="M15.3 1.472c-.563.25-1.168.418-1.803.494.648-.388 1.146-1.003 1.38-1.736-.606.36-1.278.62-1.993.761C12.311.381 11.496 0 10.593 0c-1.734 0-3.14 1.405-3.14 3.139 0 .246.029.486.082.715-2.609-.13-4.922-1.38-6.47-3.28C.795 1.039.64 1.578.64 2.154c0 1.089.554 2.05 1.397 2.612-.515-.016-.999-.157-1.422-.392v.04c0 1.52 1.082 2.789 2.518 3.077-.264.072-.541.11-.828.11-.202 0-.398-.02-.59-.056.4 1.247 1.559 2.155 2.932 2.18-1.074.842-2.428 1.344-3.898 1.344-.254 0-.503-.015-.749-.044 1.39.89 3.04 1.41 4.812 1.41 5.773 0 8.93-4.783 8.93-8.931 0-.136-.002-.272-.008-.406.613-.443 1.145-.996 1.566-1.625" transform="translate(-276.000000, -1271.000000) translate(174.000000, 1259.000000) translate(0.000000, 12.000000) translate(102.000000, 0.000000) translate(0.900000, 2.700000)"/>
                        </g>
                    </g>
                </g>
            </g>
        </g>
    </g>
</svg>
