<svg xmlns="http://www.w3.org/2000/svg" viewBox="0 0 18 18">
    <g fill="none" fill-rule="evenodd">
        <g fill="currentColor">
            <g>
                <g>
                    <path d="M9.44.351l1.812 1.813h2.564c.662 0 1.2.538 1.2 1.2V5.93L16.83 7.74c.467.469.467 1.23 0 1.698l-1.814 1.813v2.564c0 .663-.538 1.2-1.2 1.2h-2.564L9.439 16.83c-.234.234-.541.35-.849.35-.307 0-.614-.116-.85-.35L5.93 15.017H3.364c-.661 0-1.2-.538-1.2-1.201v-2.564L.351 9.439c-.468-.468-.468-1.23 0-1.698l1.813-1.812V3.364c0-.662.539-1.2 1.2-1.2H5.93L7.74.351c.469-.468 1.23-.468 1.698 0zM8.32.929L6.386 2.862c-.077.077-.181.12-.289.12H3.364c-.21 0-.382.171-.382.382v2.734c0 .108-.043.213-.12.29L.93 8.319c-.15.15-.15.393 0 .542l1.932 1.932c.077.077.12.18.12.29v2.733c0 .21.171.383.382.383h2.734c.108 0 .212.043.289.12l1.932 1.933c.15.148.392.148.542 0l1.933-1.934c.076-.076.18-.12.288-.12h2.734c.211 0 .382-.171.382-.382v-2.734c0-.109.043-.212.12-.289l1.933-1.932c.149-.149.149-.392 0-.542l-1.933-1.931c-.077-.077-.12-.182-.12-.29V3.364c0-.21-.171-.382-.382-.382h-2.734c-.108 0-.212-.043-.288-.12L8.86.929c-.15-.15-.392-.15-.542 0zm.27 3.218c2.45 0 4.444 1.993 4.444 4.443 0 2.45-1.993 4.444-4.444 4.444-2.45 0-4.443-1.994-4.443-4.444S6.14 4.147 8.59 4.147zm0 .819v7.25c1.999 0 3.626-1.626 3.626-3.626 0-1.999-1.627-3.624-3.626-3.624z" transform="translate(-1226 -24) translate(1226 24) translate(.41 .41)"/>
                </g>
            </g>
        </g>
    </g>
</svg>
