<svg width="18" height="18" viewBox="0 0 18 18" xmlns="http://www.w3.org/2000/svg">
    <g fill="none" fill-rule="evenodd">
        <path d="M0 0h18v18H0z"/>
        <g stroke="#23BED9" stroke-linecap="round" stroke-linejoin="round" stroke-width="1.5">
            <path d="m15.982 5.876-5.834-2.66c-.632-.288-1.667-.288-2.3 0L2.02 5.877c-.687.313-.687.824 0 1.137L7.8 9.649c.66.3 1.746.3 2.406 0l5.78-2.636c.684-.313.684-.824-.003-1.137z"/>
            <path d="m5.943 8.937-3.927 1.938c-.688.313-.688.824 0 1.137l5.78 2.636c.66.3 1.745.3 2.405 0l5.78-2.636c.691-.313.691-.824.004-1.137l-3.817-1.938"/>
        </g>
    </g>
</svg>
