<svg xmlns="http://www.w3.org/2000/svg" viewBox="0 0 16 16">
    <g fill="none" fill-rule="evenodd">
        <g fill="currentColor" fill-rule="nonzero">
            <g>
                <g>
                    <path d="M6.25 0c3.452 0 6.25 2.798 6.25 6.25 0 1.455-.497 2.794-1.331 3.856l2.611 2.614c.293.293.293.767 0 1.06-.266.267-.683.29-.976.073l-.084-.073-2.614-2.611c-1.062.834-2.4 1.331-3.856 1.331C2.798 12.5 0 9.702 0 6.25S2.798 0 6.25 0zm0 1.5C3.627 1.5 1.5 3.627 1.5 6.25S3.627 11 6.25 11 11 8.873 11 6.25 8.873 1.5 6.25 1.5z" transform="translate(-206 -254) translate(206 254) translate(1.333 1.333)"/>
                </g>
            </g>
        </g>
    </g>
</svg>
