<svg xmlns="http://www.w3.org/2000/svg" viewBox="0 0 18 18">
    <g fill="none" fill-rule="evenodd">
        <g>
            <g>
                <path d="M0 0H18V18H0z" transform="translate(-1169.000000, -378.000000) translate(1169.000000, 378.000000)"/>
                <path fill="currentColor" d="M14.188 2.751c.41-.128.848-.012 1.144.299.267.279.37.666.282 1.034l-.036.122-3.781 10.531c-.15.415-.51.696-.94.74l-.119.006c-.442-.001-.828-.247-1.014-.637l-.045-.11-1.68-4.683L3.398 8.16c-.445-.183-.718-.61-.696-1.09.02-.441.283-.815.68-.984l.112-.04L14.188 2.75zm-.544 2.843L9.317 9.73l1.421 3.963 2.906-8.098zm-.932-.976L4.49 7.15l3.894 1.602 4.328-4.134z" transform="translate(-1169.000000, -378.000000) translate(1169.000000, 378.000000)"/>
            </g>
        </g>
    </g>
</svg>
