<svg xmlns="http://www.w3.org/2000/svg" width="16" height="16" viewBox="0 0 16 16">
    <g fill="none" fill-rule="evenodd">
        <g fill="#23BED9">
            <g>
                <g>
                    <g>
                        <path d="M12 0c.931 0 1.698.72 1.772 1.632l.006.146v8.444c0 .932-.72 1.698-1.632 1.772L12 12H1.778C.846 12 .08 11.28.006 10.368L0 10.222V1.778C0 .846.72.08 1.632.006L1.778 0H12zM5.042 6.444H.889v3.778c0 .453.34.827.778.882l.11.007H12c.452 0 .827-.34.882-.777l.007-.112V6.444H8.736c-.262.783-.997 1.334-1.847 1.334-.797 0-1.493-.485-1.793-1.19l-.054-.144zm7.847-2.79h-12v1.902h4.507c.225 0 .415.168.441.392.064.536.516.94 1.052.94s.987-.404 1.051-.94c.024-.196.172-.35.36-.385l.082-.007h4.507V3.653zM12 .888H1.778c-.452 0-.827.34-.882.777l-.007.112v.986h12v-.986c0-.453-.34-.827-.778-.882L12 .889z" transform="translate(-1110 -74) translate(1094 66) translate(16 8) translate(1.111 2)"/>
                    </g>
                </g>
            </g>
        </g>
    </g>
</svg>
