<svg id="Layer_1" data-name="Layer 1" xmlns="http://www.w3.org/2000/svg" viewBox="0 0 63 80"><defs><style>.cls-1{fill:#21bfd9;fill-rule:evenodd;}</style></defs><path class="cls-1" d="M31.5,0A31.64,31.64,0,0,1,63,28.71c-6.46,10.75-12.81,22-19.16,33a13.3,13.3,0,1,1-24.68,0C12.81,50.76,6.37,39.5,0,28.7A31.64,31.64,0,0,1,31.5,0ZM25.38,61v2.83a2.37,2.37,0,0,1,0,.52.54.54,0,0,1-.13.3,1,1,0,0,1-.72.22h-3v3.79h3.8V65.19a.69.69,0,0,1,0-.2.24.24,0,0,1,.07-.13.39.39,0,0,1,.25-.06l.14,0,.25,0a4.52,4.52,0,0,1,2.61,1.71c.77.89,1.44,1.91,2.18,2.84,1.61,2,3.51,3.59,6.59,3.6V70a1.68,1.68,0,0,1,.07-.44.5.5,0,0,1,.38-.34,2.21,2.21,0,0,1,.51-.05H41.3V65.34H37.5v3.45a1.67,1.67,0,0,1,0,.24.24.24,0,0,1-.06.11.35.35,0,0,1-.23.06,4.28,4.28,0,0,1-3-1.76c-.77-.89-1.44-1.91-2.18-2.84-1.61-2-3.51-3.59-6.59-3.6Zm10.18.14-.26,1.19a1,1,0,0,1-.74.74l-1.19.25,1,.22.14,0h0a1,1,0,0,1,.74.76l0,.14.23,1,.22-1,0-.14v0a1,1,0,0,1,.74-.74l1.19-.26-1.19-.25a1,1,0,0,1-.74-.74ZM7.66,25a8.3,8.3,0,0,0-6.55,3.2L19.74,60.48a13.3,13.3,0,0,1,4.05-4.61L13.39,27.3A8.31,8.31,0,0,0,7.66,25Zm47.68,0a8.26,8.26,0,0,0-5.73,2.29L39.21,55.87a13.3,13.3,0,0,1,4,4.61L61.89,28.21A8.3,8.3,0,0,0,55.34,25ZM19.69,25a8.29,8.29,0,0,0-5.25,1.87L24.77,55.23a13.21,13.21,0,0,1,4.69-1.67L24.72,26.7A8.28,8.28,0,0,0,19.69,25Zm23.62,0a8.28,8.28,0,0,0-5,1.69L33.54,53.56a13.28,13.28,0,0,1,4.69,1.67L48.55,26.88A8.28,8.28,0,0,0,43.31,25ZM31.65,25A8.31,8.31,0,0,0,26,27.25l4.62,26.19a13.82,13.82,0,0,1,1.82,0L37.07,27A8.3,8.3,0,0,0,31.65,25Z"/></svg>