<svg id="Layer_1" data-name="Layer 1" xmlns="http://www.w3.org/2000/svg" xmlns:xlink="http://www.w3.org/1999/xlink" viewBox="0 0 1060.55 1060.55"><defs><style>.cls-1{fill:url(#Nebula);}.cls-2{fill-rule:evenodd;fill:url(#linear-gradient);}.cls-3{fill:none;stroke-miterlimit:10;stroke-width:85px;stroke:url(#Nebula-2);}</style><linearGradient id="Nebula" x1="731.97" y1="180.63" x2="328.36" y2="879.7" gradientUnits="userSpaceOnUse"><stop offset="0" stop-color="#29c0da"/><stop offset="0" stop-color="#f15e7e"/><stop offset="1" stop-color="#22bed9"/></linearGradient><linearGradient id="linear-gradient" x1="0.13" y1="1080" x2="0.87" y2="1080" gradientTransform="matrix(773.65, 0, 0, -471.48, 573.06, 509734.31)" gradientUnits="userSpaceOnUse"><stop offset="0" stop-color="#f15e7e"/><stop offset="0" stop-color="#23bed9"/><stop offset="0" stop-color="#fff"/></linearGradient><linearGradient id="Nebula-2" x1="429.81" y1="540" x2="1490.19" y2="540" gradientTransform="translate(1477.93 -31.11) rotate(120)" xlink:href="#Nebula"/></defs><circle class="cls-1" cx="530.16" cy="530.16" r="403.54"/><path class="cls-2" d="M1136.11,716.09s0-87.6.08-89.63a44.23,44.23,0,0,1,1.92-12.55c3-10.38,16.12-10.71,24.9-10.74h86V490.26H1136.11s-.06,102-.06,102.34c0,2.54-.25,7.15-2.28,8.83-1.55,1.28-3.74,1.54-6,1.47C1088.36,600.15,1063,578,1040.65,552s-41.85-55.74-63.4-82.78c-47.11-59.09-103-105.56-193.58-105.56v83.54c0,7.46-.07,18.25-4.67,23.43-4.46,5-12.49,5.8-20.09,5.92H670.76V589.49H783.67V487.19c0-2.54.24-7.15,2.27-8.83,1.67-1.38,4.1-1.57,6.53-1.44.85.06,3.56.32,4,.37,36.86,4.07,61.16,25.54,82.61,50.45,22.35,26,41.85,55.75,63.4,82.78,47.1,59.1,103,105.57,193.58,105.57Zm-55.29-352.4,8.52,39.63a27,27,0,0,0,20.71,20.7l39.63,8.53-39.63,8.52a27,27,0,0,0-20.71,20.7l-8.52,39.63-8.52-39.63a27,27,0,0,0-20.71-20.7L1012,432.55l39.63-8.53a27,27,0,0,0,20.71-20.7Z" transform="translate(-429.72 -9.72)"/><circle class="cls-3" cx="530.28" cy="530.28" r="487.69"/></svg>