<svg width="50" height="50" viewBox="0 0 50 50" xmlns="http://www.w3.org/2000/svg">
    <path d="M25 0c13.807 0 25 11.193 25 25S38.807 50 25 50 0 38.807 0 25 11.193 0 25 0zm0 4.585C13.725 4.585 4.585 13.725 4.585 25c0 11.274 9.14 20.415 20.415 20.415 11.275 0 20.415-9.14 20.415-20.415 0-11.275-9.14-20.415-20.415-20.415zm0 2.613c9.832 0 17.802 7.97 17.802 17.802S34.832 42.8 25 42.8 7.198 34.831 7.198 25c0-9.832 7.97-17.802 17.802-17.802zm-7.874 9.953v3.695c0 .152 0 .336-.02.513l-.027.174a.996.996 0 0 1-.115.315l-.06.081c-.183.207-.493.264-.807.278l-.134.004H12.05v4.962h4.977v-4.535c0-.048.002-.112.01-.176l.018-.094a.396.396 0 0 1 .053-.122l.04-.044a.401.401 0 0 1 .236-.076l.092.001.151.013.033.003c1.579.174 2.65 1.048 3.584 2.093l.164.186c.838.97 1.586 2.06 2.374 3.098l.478.615c2.036 2.547 4.439 4.57 8.253 4.707l.362.007v-3.127l.001-.171v-.419l.001-.1v-.13l.001-.023c.01-.19.018-.299.055-.451l.034-.124a.63.63 0 0 1 .4-.416l.097-.033c.163-.047.345-.062.511-.066l.16-.002h3.818v-4.962h-4.977v4.525c-.002.032-.006.137-.026.238l-.018.073a.367.367 0 0 1-.048.101l-.032.035a.382.382 0 0 1-.219.076l-.084.002h-.002c-1.694-.118-2.817-1.023-3.791-2.115l-.162-.184c-.838-.97-1.586-2.058-2.373-3.096l-.478-.616c-2.037-2.547-4.44-4.57-8.254-4.706l-.362-.007zm13.312.188-.334 1.549c-.095.44-.417.793-.84.932l-.13.035-1.553.332 1.553.334c.442.094.795.415.935.837l.035.13.334 1.548.334-1.549a1.26 1.26 0 0 1 .84-.931l.13-.035 1.553-.334-1.553-.332a1.263 1.263 0 0 1-.935-.838l-.035-.13-.334-1.548z" fill="#FFF" fill-rule="evenodd"/>
</svg>
